<svg width="16" height="12" viewBox="0 0 16 12" fill="none" xmlns="http://www.w3.org/2000/svg">
<path d="M15.625 5.9375C15.625 6.18614 15.5262 6.4246 15.3504 6.60041C15.1746 6.77623 14.9361 6.875 14.6875 6.875H0.9375C0.68886 6.875 0.450403 6.77623 0.274587 6.60041C0.0987721 6.4246 0 6.18614 0 5.9375C0 5.68886 0.0987721 5.4504 0.274587 5.27459C0.450403 5.09877 0.68886 5 0.9375 5H14.6875C14.9361 5 15.1746 5.09877 15.3504 5.27459C15.5262 5.4504 15.625 5.68886 15.625 5.9375ZM0.9375 1.875H14.6875C14.9361 1.875 15.1746 1.77623 15.3504 1.60041C15.5262 1.4246 15.625 1.18614 15.625 0.9375C15.625 0.68886 15.5262 0.450403 15.3504 0.274587C15.1746 0.0987719 14.9361 0 14.6875 0H0.9375C0.68886 0 0.450403 0.0987719 0.274587 0.274587C0.0987721 0.450403 0 0.68886 0 0.9375C0 1.18614 0.0987721 1.4246 0.274587 1.60041C0.450403 1.77623 0.68886 1.875 0.9375 1.875ZM14.6875 10H0.9375C0.68886 10 0.450403 10.0988 0.274587 10.2746C0.0987721 10.4504 0 10.6889 0 10.9375C0 11.1861 0.0987721 11.4246 0.274587 11.6004C0.450403 11.7762 0.68886 11.875 0.9375 11.875H14.6875C14.9361 11.875 15.1746 11.7762 15.3504 11.6004C15.5262 11.4246 15.625 11.1861 15.625 10.9375C15.625 10.6889 15.5262 10.4504 15.3504 10.2746C15.1746 10.0988 14.9361 10 14.6875 10Z" fill="#F1F5F9"/>
</svg>
